<svg width="2360" height="2360" viewBox="0 0 2360 2360" fill="none" xmlns="http://www.w3.org/2000/svg">
<path d="M1257.89 1935.71L1260.72 1931.66C1260.7 1931.79 1260.69 1931.92 1260.67 1932.05C1259.8 1933.3 1258.89 1934.53 1257.89 1935.71Z" fill="url(#paint0_linear_1340_52)"/>
<path d="M1289.1 1809.57C1310.91 1815.87 1328.11 1830.63 1337.57 1851.11C1355.32 1829.73 1374.83 1810.43 1394.24 1790.63C1394.14 1790.48 1394.02 1790.36 1393.95 1790.17C1383.86 1764.63 1375.18 1738.56 1367.94 1712.07C1367.15 1709.18 1371.55 1707.59 1372.34 1710.49C1379.45 1736.44 1387.93 1761.98 1397.75 1787.02C1399.72 1785 1401.7 1782.98 1403.67 1780.94C1426.29 1757.45 1443.59 1729.96 1460.53 1702.27C1460.44 1702.11 1460.33 1701.96 1460.28 1701.75C1454.5 1677.97 1451.47 1653.99 1451.29 1629.51C1451.26 1626.52 1455.93 1626.14 1455.95 1629.16C1456.11 1651.91 1458.77 1674.58 1463.9 1696.75C1465.05 1694.86 1466.2 1692.97 1467.36 1691.09C1487.65 1657.88 1507.37 1624.34 1526.53 1590.47C1528.01 1587.86 1532.24 1589.84 1530.76 1592.47C1517.62 1615.66 1504.14 1638.66 1490.49 1661.55L1510.97 1663.23C1517.46 1663.77 1534.79 1667.85 1539.31 1662.04C1541.17 1659.66 1544.74 1662.68 1542.9 1665.05C1538.6 1670.57 1532.1 1669.63 1525.76 1669.12C1513.12 1668.09 1500.47 1667.04 1487.82 1666.01C1482.42 1675.04 1477.08 1684.11 1471.58 1693.09C1459.99 1712.05 1448.53 1731.36 1435.6 1749.54C1457.61 1755.28 1479.62 1761.02 1501.63 1766.77C1504.53 1767.52 1503.69 1772.13 1500.77 1771.37L1433 1753.68C1432.87 1753.65 1432.79 1753.57 1432.68 1753.53C1426.23 1762.34 1419.44 1770.89 1412.01 1778.92C1395.82 1796.43 1378.79 1812.82 1362.53 1830.04C1392.12 1829.12 1420.76 1835.18 1447.45 1848.23C1450.16 1849.55 1448.17 1853.78 1445.46 1852.46C1418.31 1839.19 1389.41 1833.26 1359.24 1834.78C1358.91 1834.8 1358.57 1834.75 1358.26 1834.64C1350.97 1842.51 1343.84 1850.57 1337.08 1859.05C1313.69 1888.39 1292.74 1919.54 1271.81 1950.64C1270.13 1953.14 1266.56 1950.11 1268.22 1947.63C1288.52 1917.47 1308.83 1887.26 1331.38 1858.7C1332.34 1857.49 1333.34 1856.32 1334.31 1855.12C1334.28 1855.07 1334.25 1855.05 1334.22 1855C1325.71 1834.96 1309.18 1820.23 1288.25 1814.18C1285.38 1813.34 1286.21 1808.74 1289.1 1809.57V1809.57Z" fill="url(#paint1_linear_1340_52)"/>
<path d="M1274.89 1971.18L1270.83 1965.83C1270.99 1965.92 1271.15 1965.99 1271.32 1966.06C1272.57 1967.71 1273.78 1969.39 1274.89 1971.18Z" fill="url(#paint2_linear_1340_52)"/>
<path d="M1125.09 1878.5C1142.28 1852.98 1168.47 1836.92 1198.82 1833.21C1178.61 1801.42 1161.81 1768.23 1144.31 1734.96C1144.08 1735.04 1143.87 1735.14 1143.6 1735.16C1106.46 1737.56 1069.2 1737.92 1032.02 1736.26C1027.97 1736.09 1027.73 1729.75 1031.81 1729.93C1068.29 1731.55 1104.68 1731.21 1141.11 1728.94C1139.32 1725.55 1137.54 1722.17 1135.73 1718.78C1114.81 1679.83 1086.53 1646.09 1057.83 1612.73C1057.58 1612.78 1057.35 1612.86 1057.06 1612.84C1023.97 1610.41 991.776 1604.36 960.108 1594.43C956.241 1593.22 957.689 1587.04 961.6 1588.27C991.021 1597.52 1021.37 1603.49 1052.11 1606.08L1046.24 1599.28C1011.85 1559.28 976.715 1519.93 940.984 1481.12C938.232 1478.13 942.551 1473.49 945.323 1476.5C969.8 1503.08 993.873 1530.03 1017.75 1557.16L1028.42 1531.43C1031.81 1523.27 1044.27 1502.61 1038.66 1494.36C1036.35 1490.98 1041.73 1487.62 1044.02 1490.99C1049.36 1498.82 1045.45 1506.82 1042.16 1514.79C1035.58 1530.68 1028.97 1546.56 1022.38 1562.45C1031.79 1573.18 1041.28 1583.83 1050.58 1594.65C1070.23 1617.49 1090.4 1640.29 1108.48 1664.53L1158.14 1586.48C1160.32 1583.06 1165.91 1586.05 1163.71 1589.5L1112.73 1669.61C1112.65 1669.76 1112.52 1669.83 1112.41 1669.95C1121.11 1681.94 1129.32 1694.26 1136.59 1707.18C1152.45 1735.34 1166.53 1764.13 1182 1792.26C1193.1 1753.69 1212.82 1719.25 1240.74 1690.23C1243.57 1687.29 1248.2 1691.62 1245.37 1694.57C1216.98 1724.09 1197.31 1758.9 1186.74 1798.47C1186.63 1798.91 1186.43 1799.32 1186.15 1799.68C1193.28 1812.36 1200.72 1824.9 1208.85 1837.15C1237 1879.51 1268.48 1919.49 1299.93 1959.42C1302.46 1962.63 1297.06 1965.96 1294.56 1962.79C1264.07 1924.07 1233.52 1885.31 1206.04 1844.36C1204.87 1842.62 1203.78 1840.84 1202.63 1839.09C1202.56 1839.1 1202.52 1839.14 1202.44 1839.15C1173.05 1841.81 1147.17 1857.02 1130.67 1881.52C1128.41 1884.87 1122.81 1881.89 1125.09 1878.5V1878.5Z" fill="url(#paint3_linear_1340_52)"/>
<path d="M1782.83 1696.16L1783.19 1695.89C1784.36 1695.08 1785.49 1694.22 1786.6 1693.32C1785.02 1690.98 1783.34 1688.71 1781.57 1686.52L1781.21 1686.03L1781.15 1686.05C1738.3 1633.37 1685.06 1684.57 1685.06 1684.57C1727.56 1728.82 1770.18 1704.99 1782.83 1696.16V1696.16Z" fill="url(#paint4_linear_1340_52)"/>
<path d="M1696.15 1796.24C1695.24 1793.62 1694.2 1791.04 1693.06 1788.52L1692.78 1787.8H1692.74C1676.47 1751.96 1647.97 1748.93 1626.9 1752.78C1651.56 1732.17 1671.8 1707.63 1687.72 1679.56C1687.9 1679.6 1688.03 1679.67 1688.18 1679.69C1688.18 1679.69 1688.35 1679.14 1688.53 1678.2C1697.55 1662.11 1705.21 1644.88 1711.45 1626.58C1716.72 1611.24 1720.9 1595.62 1724.37 1579.85C1779.92 1614.09 1815.83 1565.09 1815.83 1565.09C1813.96 1563.36 1812.01 1561.71 1810 1560.14L1809.42 1559.62L1809.34 1559.62C1768.91 1528.19 1736.59 1559.98 1725.77 1573.16C1732.23 1541.53 1735.64 1509.26 1737.94 1476.98C1793.97 1512.23 1830.24 1462.72 1830.24 1462.72C1828.28 1460.9 1826.35 1459.26 1824.39 1457.73L1823.8 1457.22L1823.75 1457.24C1780.44 1423.56 1746.36 1462.55 1738.19 1473.35C1739.44 1455.02 1740.34 1436.72 1741.22 1418.53C1741.33 1417.1 1740.85 1416.07 1740.1 1415.31C1745.12 1404.36 1764.72 1353.98 1713.16 1331.88L1713.13 1331.79L1712.27 1331.47C1710.03 1330.56 1707.74 1329.66 1705.23 1328.85C1705.23 1328.85 1704.57 1330.23 1703.73 1332.72L1703.64 1332.96C1699.11 1346.09 1689.29 1387.82 1734.18 1414.72C1732.6 1415.5 1731.35 1416.96 1731.23 1419.11C1730.75 1428.7 1730.25 1438.33 1729.74 1447.98C1723.11 1429.44 1707.69 1408.85 1672.18 1411.63L1672.13 1411.58L1671.37 1411.68C1668.83 1411.9 1666.29 1412.22 1663.78 1412.64C1663.78 1412.64 1663.88 1414.14 1664.25 1416.69L1664.29 1417L1664.32 1417.02C1666.39 1430.64 1676.85 1471.6 1728.03 1475.17C1726.84 1492.24 1725.32 1509.3 1723.18 1526.28C1718.54 1515.44 1709.26 1505.3 1692.51 1498.11L1692.5 1498.07L1691.65 1497.73C1689.41 1496.82 1687.1 1495.95 1684.61 1495.12C1684.61 1495.12 1683.95 1496.49 1683.12 1498.89L1682.98 1499.24L1683.01 1499.25C1678.5 1512.41 1668.65 1554.27 1713.84 1581.14C1708.76 1603.82 1702.04 1626.08 1692.95 1647.6C1692.09 1649.74 1691.07 1651.71 1690.16 1653.79C1688.83 1632.1 1679.09 1603.72 1638.84 1597.24L1638.84 1597.22L1638.65 1597.2C1635.72 1596.73 1632.77 1596.39 1629.8 1596.17C1629.8 1596.17 1618.44 1655.86 1678.38 1676.76C1662.43 1704.27 1641.9 1727.58 1617.89 1746.84C1628.31 1727.47 1636.01 1696.52 1602.99 1669.73L1602.99 1669.65L1602.39 1669.23C1600.22 1667.5 1597.99 1665.85 1595.7 1664.28C1595.7 1664.28 1594.71 1665.42 1593.23 1667.48L1592.84 1668.04C1584.41 1680.19 1562.28 1719.81 1599.36 1760.44C1575.39 1776.46 1548.52 1788.94 1519.59 1797.88L1519.44 1797.92C1533.09 1780.93 1545.22 1752.98 1519.23 1721.04L1519.26 1720.99L1518.87 1720.55C1517.08 1718.38 1515.2 1716.27 1513.25 1714.24C1513.25 1714.24 1465.87 1750.46 1494.84 1805.09C1445.25 1818.9 1394.57 1830.01 1350.01 1855.15C1360.48 1830.3 1368.48 1787.8 1320.62 1759.12L1320.58 1759.04L1319.56 1758.49C1316.7 1756.8 1313.77 1755.23 1310.79 1753.78C1310.79 1753.78 1270.52 1816.81 1329.89 1867.87C1325.22 1871.09 1320.69 1874.51 1316.31 1878.11C1298.95 1892.39 1284.75 1909.48 1272.71 1928.17C1277.49 1900.2 1273.59 1861.12 1224.25 1840.96L1224.24 1840.9L1223.31 1840.56C1219.96 1839.21 1216.55 1838 1213.1 1836.93C1213.1 1836.93 1212.14 1839 1210.96 1842.67L1210.95 1842.68C1204.95 1861.14 1192.3 1919.61 1255.4 1956.27C1260.03 1956.36 1264.5 1958.44 1266.72 1962.63C1331.04 1998.86 1375.05 1957.65 1387.88 1942.97L1387.96 1942.89C1390.46 1940.01 1391.74 1938.17 1391.74 1938.17C1389.06 1935.76 1386.27 1933.46 1383.4 1931.29L1382.59 1930.62L1382.5 1930.64C1338.62 1897.73 1302.22 1916.47 1280.91 1935.54C1296.01 1912 1314.51 1891.01 1337.97 1874.32C1338.41 1874.65 1338.76 1874.92 1339.21 1875.24C1339.21 1875.24 1340.08 1874.01 1341.44 1871.79C1342.68 1870.94 1344.01 1870.17 1345.27 1869.35C1412.68 1927.17 1469.44 1868.26 1469.44 1868.26C1467.27 1865.62 1465 1863.08 1462.63 1860.62L1462.06 1859.98H1461.98C1447.78 1845.45 1433.5 1838.52 1420.04 1836.39C1446.49 1828.14 1473.62 1821.79 1500.38 1814.29C1500.63 1814.67 1500.87 1815.07 1501.12 1815.44C1501.12 1815.44 1502.23 1814.69 1504.04 1813.26C1505.11 1812.94 1506.18 1812.65 1507.25 1812.36C1537.1 1865.6 1584.19 1853.53 1598.68 1848.2L1598.68 1848.22L1598.73 1848.19C1600.21 1847.66 1601.66 1847.06 1603.09 1846.41C1602.15 1843.8 1601.12 1841.22 1600 1838.68L1599.7 1838H1599.66C1584.63 1804.84 1559.15 1799.74 1538.71 1802.2C1551.15 1797.76 1563.37 1792.74 1575.22 1786.7C1585.42 1781.52 1595.29 1775.71 1604.77 1769.32C1634.65 1814.25 1677.99 1803.09 1691.77 1798.02L1691.8 1798.05L1691.81 1798.02C1694.58 1797.01 1696.15 1796.24 1696.15 1796.24V1796.24Z" fill="url(#paint5_linear_1340_52)"/>
<path d="M758.51 1557.25L758.359 1556.96C757.374 1555.18 756.884 1554.11 756.884 1554.11C758.714 1553.04 760.587 1552.05 762.5 1551.13L762.9 1550.92L762.928 1550.95C809.037 1529.19 828.466 1581.13 828.466 1581.13C785.33 1597.3 764.21 1567.34 758.51 1557.25V1557.25Z" fill="url(#paint6_linear_1340_52)"/>
<path d="M784.723 1653.14C786.192 1651.66 787.726 1650.25 789.32 1648.91L789.739 1648.52L789.768 1648.53C812.416 1629.55 832.696 1636.74 845.711 1646.19C835.703 1624.23 829.967 1601.05 828.295 1576.88C828.158 1576.85 828.049 1576.85 827.937 1576.82C827.937 1576.82 827.998 1576.39 828.186 1575.69C827.299 1561.87 827.707 1547.72 829.421 1533.31C830.832 1521.22 833.071 1509.28 835.837 1497.48C787.119 1502.63 778.706 1457.81 778.706 1457.81C780.535 1457.25 782.386 1456.76 784.255 1456.35L784.823 1456.18L784.879 1456.21C822.444 1448.05 834.015 1480.06 837.058 1492.49C842.951 1468.99 851.115 1446.03 860.034 1423.43C810.658 1429.11 802.17 1383.82 802.17 1383.82C804.006 1383.25 805.865 1382.75 807.744 1382.34L808.312 1382.19L808.343 1382.22C848.589 1373.47 859.018 1410.93 861.042 1420.89C866.145 1408.08 871.47 1395.39 876.775 1382.79C877.165 1381.78 877.825 1381.24 878.581 1380.98C878.735 1371.93 881.812 1331.46 923.892 1333.23L923.945 1333.18L924.631 1333.25C926.445 1333.35 928.288 1333.49 930.244 1333.75C930.244 1333.75 930.244 1334.9 930.006 1336.86L929.987 1337.05C928.797 1347.41 921.905 1378.85 882.789 1382.5C883.604 1383.54 883.973 1384.93 883.354 1386.43C880.569 1393.08 877.783 1399.75 874.998 1406.46C885.499 1396.05 902.618 1387.12 925.76 1400.52L925.816 1400.51L926.297 1400.83C927.949 1401.79 929.559 1402.83 931.124 1403.93C931.124 1403.93 930.566 1404.92 929.491 1406.53L929.363 1406.73L929.335 1406.73C923.514 1415.27 903.142 1439.62 867.33 1425.42C862.598 1437.37 858.088 1449.41 854.026 1461.6C860.686 1455.77 870.261 1451.91 883.931 1452.49L883.956 1452.46L884.642 1452.51C886.456 1452.61 888.298 1452.77 890.258 1453.03C890.258 1453.03 890.255 1454.16 890.043 1456.06L890.029 1456.34H890.003C888.788 1466.71 881.871 1498.25 842.556 1501.78C838.634 1518.78 835.958 1536.03 835.129 1553.54C835.017 1555.28 835.067 1556.95 835.011 1558.65C842.951 1544.38 858.752 1528.34 888.111 1537.01V1537L888.251 1537.05C890.388 1537.68 892.497 1538.41 894.572 1539.22C894.572 1539.22 882.898 1583.32 835.529 1578.02C837.402 1601.82 843.735 1624.26 853.743 1645.1C852.976 1628.6 857.803 1605.14 888.853 1597.73L888.878 1597.67L889.421 1597.58C891.451 1597.11 893.498 1596.72 895.558 1596.4C895.558 1596.4 895.857 1597.5 896.19 1599.37L896.269 1599.87C898.038 1610.83 900.169 1644.84 861.876 1660.32C872.906 1678.94 887.047 1696.11 903.738 1711.55C903.766 1711.57 903.797 1711.6 903.822 1711.63C900.096 1695.69 900.95 1672.83 928.912 1659.64L928.909 1659.6L929.312 1659.43C931.16 1658.58 933.097 1657.75 935.169 1656.98C935.169 1656.98 955.491 1696.88 918.145 1724.47C947.243 1749.91 977.946 1773.88 999.959 1805.36C1000.94 1785.14 1009.31 1753.76 1051.02 1749.88L1051.07 1749.83L1051.95 1749.79C1054.32 1749.6 1056.81 1749.46 1059.41 1749.45C1059.41 1749.45 1066.23 1805.2 1009.46 1820.49C1011.57 1824.19 1013.53 1827.98 1015.33 1831.84C1022.45 1847.14 1026.52 1863.32 1028.6 1879.88C1034.44 1859.39 1049.76 1834.19 1089.71 1836.56L1089.73 1836.51L1090.48 1836.59C1093.09 1836.77 1095.78 1837.03 1098.57 1837.45C1098.57 1837.45 1098.54 1839.16 1098.15 1842.03V1842.04C1096.22 1856.49 1085.82 1900.17 1031.2 1904.52C1028.04 1903.08 1024.34 1903.03 1021.47 1905.15C966.169 1908.8 949.741 1866.63 945.824 1852.52L945.79 1852.44C945.032 1849.68 944.763 1848.02 944.763 1848.02C947.362 1847.26 949.991 1846.61 952.644 1846.07L953.403 1845.88L953.459 1845.92C993.851 1837.88 1012.41 1862.38 1020.65 1882.2C1018.07 1861.37 1012.36 1841.15 1001.89 1822.24C1001.48 1822.32 1001.15 1822.39 1000.75 1822.46C1000.75 1822.46 1000.56 1821.35 1000.36 1819.4C999.794 1818.43 999.148 1817.47 998.554 1816.51C934.155 1833.78 914.841 1775.48 914.841 1775.48C917.28 1774.34 919.648 1773.38 921.935 1772.52L922.526 1772.27L922.582 1772.29C936.913 1767.07 948.828 1767 958.635 1769.93C943.4 1755.76 927.092 1742.66 911.412 1728.9C911.118 1729.07 910.827 1729.27 910.533 1729.43C910.533 1729.43 910.026 1728.57 909.267 1727.01C908.64 1726.45 908.01 1725.9 907.383 1725.36C869.9 1751.72 841.932 1728.26 833.847 1719.96L833.85 1719.97L833.822 1719.93C832.268 1718.33 831.453 1717.31 831.453 1717.31C832.931 1715.85 834.464 1714.44 836.05 1713.09L836.473 1712.72L836.501 1712.73C857.436 1695.16 876.344 1699.98 889.387 1708.27C882.403 1701.23 875.759 1693.87 869.693 1685.93C864.473 1679.11 859.676 1671.98 855.331 1664.57C820.515 1685.3 794.798 1663.68 787.116 1655.77L787.088 1655.79V1655.76C785.537 1654.17 784.723 1653.14 784.723 1653.14V1653.14Z" fill="url(#paint7_linear_1340_52)"/>
<path d="M1221.36 418.116C1363.61 418.116 1471.25 462.38 1544.25 550.875C1602.27 620.718 1631.29 702.721 1631.29 796.904C1631.29 954.439 1549.06 1104.25 1384.6 1246.33C1327.27 1295.87 1296.73 1353.51 1292.98 1419.28C1291.09 1441.2 1290.15 1465.56 1290.15 1492.36V1583.71L1212.28 1619.27L1024.82 1583.71V1492.36C1024.82 1348.64 1065.53 1241.88 1146.95 1172.04C1234.92 1096.52 1295.28 1018.99 1328.05 939.405C1346.76 893.122 1356.13 844.407 1356.13 793.25C1356.13 740.478 1342.55 699.067 1315.42 669.019C1285.45 634.117 1241.93 619.901 1184.85 626.39C1131.51 632.082 1093.12 664.148 1069.74 722.611C1059.43 746.971 1052.41 775.403 1048.68 807.867L970.81 843.427L793.18 768.891C802.525 673.891 839.026 593.924 902.68 528.951C945.718 485.104 1005.62 453.438 1082.38 433.953C1122.61 423.407 1168.94 418.116 1221.36 418.116V418.116ZM1024.82 1743.26H1290.15V1974.67L1212.28 2010.23L1024.82 1974.67L946.947 1778.82L1024.82 1743.26Z" fill="#ED3237"/>
<path d="M1549.69 775.924C1548.56 767.217 1547.11 758.554 1545.35 749.952C1533.11 689.543 1506.79 635.058 1466.38 586.449C1454.8 572.371 1442.11 559.241 1428.43 547.185C1357.85 484.802 1262.83 453.654 1143.5 453.654C1091.07 453.654 1044.75 458.962 1004.52 469.491C927.747 489.013 867.864 520.645 824.829 564.514C761.175 629.484 724.675 709.459 715.33 804.438L970.827 843.439C974.556 810.975 981.575 782.503 991.885 758.155C1015.27 699.72 1053.66 667.653 1107 661.948C1164.07 655.456 1207.59 669.669 1237.55 704.588C1245.14 712.967 1251.64 722.267 1257.08 732.447C1271.2 758.681 1278.26 790.793 1278.26 828.786C1278.26 879.981 1268.88 928.677 1250.19 974.96C1217.42 1054.54 1157.05 1132.06 1069.09 1207.6C1019.39 1250.24 984.819 1306.66 965.471 1376.85C961.777 1390.27 958.704 1403.86 956.261 1417.56C950.032 1451.52 946.961 1488.33 946.961 1527.89V1619.28H1212.28V1527.89C1212.28 1501.14 1213.21 1476.74 1215.09 1454.85C1218.86 1389.05 1249.4 1331.45 1306.74 1281.87C1454.62 1154.17 1536 1020.14 1550.92 879.892C1552.58 864.139 1553.42 848.31 1553.42 832.47C1553.42 813.128 1552.19 794.261 1549.69 775.924ZM946.961 1778.83V2010.24H1212.28V1778.83H946.961V1778.83Z" fill="url(#paint8_linear_1340_52)"/>
<path opacity="0.1" d="M1346.53 1230.28L1240.88 1310.26L1171.31 1255.6L1169.3 1255.52C1165.63 1249.38 1157.82 1236.95 1153.33 1234.42C1147.3 1231.03 1133.75 1230.42 1133.75 1230.42C1133.75 1230.42 1116.53 1216.1 1115.95 1221.26C1115.38 1226.42 1122.02 1233.85 1122.02 1233.85C1122.02 1233.85 1086.95 1223.49 1085.92 1228.55C1084.88 1233.62 1090.63 1258.3 1116 1255.09C1141.36 1251.88 1140.61 1254.37 1140.61 1254.37C1140.61 1254.37 1184.95 1345.83 1238.07 1354.39C1279.28 1361.04 1370.45 1289.33 1370.45 1289.33C1370.45 1289.33 1406.23 1238.65 1346.53 1230.28V1230.28Z" fill="#231F20"/>
<path d="M1346.53 1214.05L1240.88 1294.04L1171.31 1239.38L1169.3 1239.3C1165.63 1233.16 1157.82 1220.72 1153.33 1218.19C1147.3 1214.8 1133.75 1214.19 1133.75 1214.19C1133.75 1214.19 1116.53 1199.87 1115.95 1205.03C1115.38 1210.19 1122.02 1217.62 1122.02 1217.62C1122.02 1217.62 1086.95 1207.26 1085.92 1212.33C1084.88 1217.39 1090.63 1242.08 1116 1238.86C1141.36 1235.65 1140.61 1238.14 1140.61 1238.14C1140.61 1238.14 1184.95 1329.6 1238.07 1338.17C1279.28 1344.81 1370.45 1273.11 1370.45 1273.11C1370.45 1273.11 1406.23 1222.42 1346.53 1214.05Z" fill="#F7BAAC"/>
<path d="M1385.98 1178.88C1385.98 1178.88 1302.38 1235.08 1291.97 1247.3C1278.81 1262.74 1293.02 1322.58 1315 1319.45C1336.98 1316.32 1374.96 1289.05 1374.96 1289.05L1385.98 1178.88Z" fill="url(#paint9_linear_1340_52)"/>
<path d="M1614.46 1335.12C1611.69 1294.94 1520.94 1203.91 1520.94 1203.91C1468.34 1174.45 1493.89 1245.95 1493.89 1245.95C1493.89 1245.95 1550.58 1369.46 1590.3 1373.05C1601.5 1374.07 1615.48 1350 1614.46 1335.12V1335.12Z" fill="#E8AAA0"/>
<path d="M1487.5 1179.38C1519.63 1163.8 1596.49 1275.36 1583.65 1285C1570.82 1294.63 1542.13 1342.89 1526.53 1327.09C1510.92 1311.29 1492.31 1268.03 1492.31 1268.03C1492.31 1268.03 1467.54 1189.07 1487.5 1179.38V1179.38Z" fill="url(#paint10_linear_1340_52)"/>
<path d="M1538.98 1942.55L1549.69 1983.61L1519.25 1989.87L1506.65 1943.04L1538.98 1942.55Z" fill="#E9C3B7"/>
<path d="M1566.24 1991.73L1550.94 1968.06H1511.31C1511.31 1968.06 1508.38 1985.53 1515.3 1997.37C1522.25 2009.14 1538.98 2008.79 1538.98 2008.79L1566.24 1991.73Z" fill="#292929"/>
<path d="M1538.98 2008.79C1538.98 2008.79 1539.7 1985.9 1566.24 1985.9C1592.77 1985.9 1588.43 2008.79 1588.43 2008.79H1538.98ZM1548.52 1957.16C1548.52 1957.16 1539.97 1959.93 1528.08 1960.89C1521.63 1961.46 1514.22 1961.46 1506.67 1960.23C1495.31 1958.39 1470.79 1844.51 1454.16 1748.74C1445.3 1697.72 1437.71 1650.56 1433.63 1625.11C1433.76 1625.07 1433.85 1624.76 1433.85 1624.19C1434.55 1616.69 1428.93 1565.23 1416.82 1542.33C1409.72 1528.91 1400.64 1516.98 1392.08 1504.43C1382.47 1490.26 1377.51 1492.69 1373.12 1476.07C1371.95 1471.7 1371.05 1467.26 1370.44 1462.78C1419.88 1453.34 1440.93 1458.76 1440.93 1458.76C1440.93 1458.76 1518.33 1448.67 1519.27 1469.35C1520.14 1488.55 1530.54 1597.82 1530.54 1597.82L1548.52 1957.16V1957.16Z" fill="#292929"/>
<path d="M1354.72 1942.55L1344 1983.61L1374.45 1989.87L1387.04 1943.04L1354.72 1942.55Z" fill="#E9C3B7"/>
<path d="M1449.21 1480.42C1449.21 1480.42 1395.04 1462.93 1346.22 1458.76C1345.65 1463.11 1351.58 1686.33 1354.72 1700.77C1357.46 1713.38 1340.18 1954.03 1348.5 1957.49C1359.61 1962.11 1385.66 1962.23 1388.82 1955.27C1416.61 1894.18 1411.99 1789.76 1427.29 1700.77C1449.06 1574.15 1449.21 1480.42 1449.21 1480.42V1480.42Z" fill="#292929"/>
<path d="M1327.46 1991.73L1342.75 1968.06H1382.38C1382.38 1968.06 1385.31 1985.53 1378.39 1997.37C1371.44 2009.14 1354.72 2008.79 1354.72 2008.79L1327.46 1991.73Z" fill="#292929"/>
<path d="M1354.72 2008.79C1354.72 2008.79 1354 1985.9 1327.46 1985.9C1300.93 1985.9 1305.27 2008.79 1305.27 2008.79H1354.72Z" fill="#292929"/>
<path d="M1528.08 1961.39C1521.63 1961.96 1514.22 1961.96 1506.67 1960.74C1495.31 1958.89 1470.79 1845.01 1454.16 1749.24C1445.3 1698.22 1437.71 1651.06 1433.63 1625.61L1433.85 1624.69L1458.15 1530.86C1458.15 1530.86 1454.2 1649.31 1458.15 1679.35C1461.97 1708.75 1525.1 1950.08 1528.08 1961.39V1961.39Z" fill="#292929"/>
<path opacity="0.3" d="M1346.22 1458.76L1346.18 1481.57C1346.18 1481.57 1413.55 1517.41 1448.08 1515.47C1482.61 1513.53 1506.62 1514.66 1520.93 1492L1519.27 1469.35L1346.22 1458.76V1458.76Z" fill="url(#paint11_linear_1340_52)"/>
<path d="M1427.91 1172.23C1409.98 1173.22 1368.23 1168.53 1360.98 1198.3C1352.27 1234.04 1321.44 1451.23 1346.22 1469.58C1404.63 1512.82 1507.54 1500.34 1520.4 1476.87C1545.11 1431.75 1518.99 1203.64 1502.03 1181.2C1498.33 1176.28 1456.39 1170.66 1427.91 1172.23V1172.23Z" fill="url(#paint12_linear_1340_52)"/>
<path d="M1461.76 1178.58C1461.76 1178.58 1458.28 1137.82 1458.28 1130.37C1458.28 1122.91 1470.7 1106.01 1460.02 1086.13C1449.33 1066.25 1404.6 1069.73 1394.66 1092.59C1384.72 1115.46 1385.71 1171.62 1401.61 1168.64C1417.52 1165.66 1417.02 1162.67 1417.02 1162.67L1415.04 1193.49C1415.04 1193.49 1420.5 1212.87 1441.38 1198.96C1462.26 1185.04 1461.76 1178.58 1461.76 1178.58V1178.58Z" fill="#F7B9AC"/>
<path d="M1417.03 1162.67L1440.7 1146.94C1440.7 1146.94 1426.98 1173.85 1415.98 1178.88L1417.03 1162.67V1162.67ZM1389.67 1112.05L1388.96 1117.79C1388.96 1117.79 1398.36 1120.19 1413.58 1114.92C1428.8 1109.65 1436 1095.24 1436 1095.24C1436 1095.24 1433.5 1117.31 1439.13 1118.34C1444.78 1119.37 1450.73 1103.7 1450.73 1103.7L1454.19 1127.2L1456.68 1093.36L1440.7 1082.08L1389.67 1112.05Z" fill="#E8A89E"/>
<path d="M1435.42 1088.12C1435.42 1088.12 1409.53 1117.09 1389.67 1112.05C1369.81 1107.01 1350.92 1087.44 1362.35 1073.12C1373.78 1058.8 1380.24 1010.09 1421.99 1022.51C1421.99 1022.51 1457.78 1026.49 1453.8 1039.91C1453.8 1039.91 1482.63 1039.91 1480.14 1063.27C1477.66 1086.63 1472.69 1125.4 1462.25 1129.37C1451.82 1133.35 1454.3 1123.41 1454.3 1123.41L1452.81 1101.04C1452.81 1101.04 1448.83 1096.07 1447.34 1106.01C1445.85 1115.95 1440.38 1118.44 1439.39 1107C1438.4 1095.57 1446.35 1089.61 1435.42 1088.12V1088.12Z" fill="#181818"/>
<path d="M1475.62 1221.6L1453.7 1232.31C1451.34 1233.46 1450.09 1236.11 1450.64 1238.75L1465.65 1310.62C1466.45 1314.43 1470.55 1316.54 1473.94 1314.88L1495.87 1304.18C1498.22 1303.03 1499.48 1300.38 1498.93 1297.74L1483.92 1225.87C1483.12 1222.06 1479.02 1219.95 1475.62 1221.6V1221.6Z" fill="url(#paint13_linear_1340_52)"/>
<path d="M1478.26 1226.54L1457.12 1236.86C1456.01 1237.4 1455.12 1238.29 1454.57 1239.39C1454.03 1240.49 1453.86 1241.74 1454.1 1242.95L1467.59 1310.22C1467.76 1311.06 1468.12 1311.84 1468.63 1312.51C1469.15 1313.19 1469.82 1313.74 1470.58 1314.11C1471.34 1314.49 1472.18 1314.69 1473.03 1314.69C1473.88 1314.69 1474.72 1314.5 1475.48 1314.12L1496.63 1303.8C1497.73 1303.27 1498.63 1302.38 1499.17 1301.27C1499.72 1300.17 1499.88 1298.92 1499.64 1297.72L1486.15 1230.44C1485.98 1229.61 1485.63 1228.82 1485.11 1228.15C1484.59 1227.47 1483.93 1226.93 1483.16 1226.55C1482.4 1226.17 1481.56 1225.97 1480.71 1225.97C1479.86 1225.97 1479.02 1226.16 1478.26 1226.54V1226.54Z" fill="#1F265A"/>
<path d="M1488.27 1250.81C1488.27 1250.81 1485.55 1237.71 1489.4 1239.92C1493.26 1242.14 1501.06 1260.22 1502.27 1271.94C1503.48 1283.66 1498.06 1299.77 1498.06 1299.77C1498.06 1299.77 1465.93 1300.79 1456.05 1284.08C1446.17 1267.37 1449.95 1248.77 1449.95 1248.77C1449.95 1248.77 1470.86 1262.34 1478.87 1258.23C1486.88 1254.11 1488.27 1250.81 1488.27 1250.81V1250.81Z" fill="#F7BAAC"/>
<path d="M1502.27 1271.94C1502.27 1271.94 1539.54 1303.88 1555.93 1307.93C1572.32 1311.97 1586.23 1317.66 1586.23 1317.66C1586.23 1317.66 1623.65 1343.54 1608.02 1364.04C1592.39 1384.54 1565.69 1365.85 1551.54 1350.79C1537.38 1335.72 1498.05 1299.77 1498.05 1299.77C1498.05 1299.77 1495.23 1273.02 1502.27 1271.94Z" fill="#F7BAAC"/>
<g opacity="0.1">
<path d="M1543.04 1083.75L1810.87 1081.99C1812.79 1081.98 1814.7 1082.35 1816.48 1083.07C1818.26 1083.79 1819.88 1084.86 1821.25 1086.21C1822.62 1087.56 1823.71 1089.17 1824.45 1090.94C1825.2 1092.71 1825.59 1094.61 1825.6 1096.53L1826.24 1193.13C1826.26 1197.01 1824.75 1200.74 1822.02 1203.5C1819.29 1206.27 1815.58 1207.83 1811.7 1207.86L1599.84 1209.25C1586.52 1225.03 1570.45 1245.68 1570.45 1245.68L1562.33 1209.5L1543.87 1209.62C1541.95 1209.63 1540.04 1209.26 1538.26 1208.54C1536.48 1207.82 1534.86 1206.75 1533.49 1205.4C1532.12 1204.05 1531.04 1202.44 1530.29 1200.67C1529.54 1198.9 1529.15 1197 1529.14 1195.08L1528.5 1098.48C1528.48 1094.6 1529.99 1090.87 1532.72 1088.11C1535.45 1085.34 1539.16 1083.78 1543.04 1083.75V1083.75Z" fill="#231F20"/>
</g>
<path d="M1548.47 1064.91L1816.3 1063.15C1818.22 1063.13 1820.13 1063.5 1821.91 1064.22C1823.69 1064.95 1825.31 1066.01 1826.68 1067.37C1828.05 1068.72 1829.13 1070.32 1829.88 1072.09C1830.63 1073.86 1831.02 1075.76 1831.03 1077.69L1831.67 1174.28C1831.69 1178.16 1830.18 1181.9 1827.45 1184.66C1824.72 1187.42 1821.01 1188.99 1817.13 1189.01L1605.26 1190.41C1591.95 1206.19 1575.88 1226.83 1575.88 1226.83L1567.75 1190.65L1549.29 1190.77C1545.41 1190.8 1541.68 1189.28 1538.92 1186.55C1536.16 1183.83 1534.59 1180.11 1534.56 1176.23L1533.93 1079.64C1533.92 1077.72 1534.28 1075.81 1535.01 1074.03C1535.73 1072.25 1536.8 1070.63 1538.15 1069.26C1539.5 1067.89 1541.1 1066.8 1542.88 1066.06C1544.65 1065.31 1546.55 1064.92 1548.47 1064.91V1064.91Z" fill="url(#paint14_linear_1340_52)"/>
<path d="M1647.99 1091.4H1807.13V1103.38H1647.99V1091.4ZM1647.99 1141.74H1807.13V1153.72H1647.99V1141.74ZM1647.99 1116.57H1807.13V1128.55H1647.99V1116.57ZM1586.73 1139.91C1586.29 1138.86 1586.07 1137.73 1586.07 1136.16C1586.07 1122.82 1599.22 1121.6 1599.22 1106.43C1599.22 1102.07 1597.03 1100.42 1593.19 1100.42C1589.35 1100.42 1587.16 1102.07 1587.16 1106.43V1113.06H1575.77V1107.04C1575.77 1097.28 1581.79 1091.7 1593.52 1091.7C1605.25 1091.7 1611.28 1097.28 1611.28 1107.04C1611.28 1122.91 1597.02 1125.35 1597.02 1136.51C1597.02 1137.64 1597.13 1138.77 1597.46 1139.91H1586.73V1139.91ZM1597.79 1144.18V1153.42H1586.18V1144.18H1597.79Z" fill="white"/>
<path d="M737.69 1937.24L739.283 1971.93C739.283 1971.93 708.037 1976.93 708.709 1974.87C709.381 1972.81 709.703 1915.96 709.703 1915.96L737.69 1937.24V1937.24Z" fill="#FFB092"/>
<path d="M741.777 1969.52C741.777 1969.52 712.138 1975.42 708.112 1970.88C708.112 1970.88 704.963 1960.17 701.962 1972.86C698.961 1985.55 698.336 1995.03 702.578 1997.74C706.819 2000.45 790.381 2001.52 790.381 2001.52C790.381 2001.52 800.129 1990.84 780.7 1986.97C761.271 1983.09 741.777 1969.52 741.777 1969.52Z" fill="url(#paint15_linear_1340_52)"/>
<path d="M511.641 1927.22L501.971 1960.57C501.971 1960.57 470.784 1955.23 472.083 1953.5C473.382 1951.77 492.002 1898.05 492.002 1898.05L511.641 1927.22V1927.22Z" fill="#FFB092"/>
<path d="M505.113 1959.09C505.113 1959.09 475.154 1955.12 472.806 1949.53C472.806 1949.53 473.273 1938.37 466.344 1949.42C459.415 1960.47 455.77 1969.24 458.911 1973.17C462.052 1977.11 540.816 2005.04 540.816 2005.04C540.816 2005.04 553.484 1998.07 536.339 1988.14C519.192 1978.22 505.113 1959.09 505.113 1959.09V1959.09Z" fill="url(#paint16_linear_1340_52)"/>
<path d="M703.328 1432.13C703.328 1432.13 738.838 1707.89 742.488 1715.19C746.139 1722.49 748.955 1957.79 748.955 1957.79C748.955 1957.79 696.024 1968.74 697.849 1954.14C699.675 1939.53 641.231 1616.87 641.231 1616.87C641.231 1616.87 579.212 1490.53 604.763 1441.25C630.321 1391.97 703.328 1432.13 703.328 1432.13Z" fill="#292929"/>
<path d="M685.747 1431.47C624.187 1711.33 603.812 1748.94 603.812 1748.94L506.683 1952.76C506.683 1952.76 453.195 1944.98 459.897 1931.88C466.599 1918.78 537.039 1659.42 537.039 1659.42C537.039 1659.42 506.734 1455.63 547.579 1418.04C588.431 1380.45 685.747 1431.47 685.747 1431.47Z" fill="#292929"/>
<path d="M924.483 1219.85L805.904 1235.19L735.078 1203.63C730.758 1205.69 717.707 1249.54 708.745 1259.55C736.713 1282.77 756.052 1264.46 780.672 1276.28C780.672 1276.28 919.427 1241.57 925.415 1247.11C922.277 1212.51 924.483 1219.85 924.483 1219.85Z" fill="#E9C3B7"/>
<path d="M972.616 1240.1C974.198 1245.97 968.436 1252.37 964.192 1256.17C940.306 1254.56 921.166 1258.81 902.946 1264.31C902.207 1252.54 899.696 1241.02 895.373 1230.23C915.468 1224.56 931.185 1217.82 932.308 1214.33C934.128 1208.66 939.329 1200.61 944.808 1204.8C949.452 1208.35 945.919 1216.07 945.919 1216.07C945.919 1216.07 970.25 1231.2 972.616 1240.1V1240.1Z" fill="#E9C3B7"/>
<path d="M746.475 1200.57C747.869 1182.26 700.59 1146.13 700.59 1146.13C676.95 1122.34 629.159 1146.13 641.421 1187.1C645.424 1200.47 671.483 1227.95 703.258 1254.94C712.838 1244.36 746.187 1204.36 746.475 1200.57V1200.57Z" fill="url(#paint17_linear_1340_52)"/>
<path d="M716.702 1436.86C700.195 1441.03 683.429 1443.94 667.045 1445.9C604.159 1453.44 546.583 1446.99 531.613 1441.38C531.373 1441.28 531.132 1441.18 530.969 1441.09C528.881 1440.24 527.781 1439.35 527.826 1438.61L527.84 1438.37C566.034 1333.85 548.366 1355.7 571.39 1246.21C584.192 1185.38 590.539 1170.45 602.994 1152.17C617.322 1131.28 639.058 1116.59 656.197 1116.59C656.197 1116.59 682.916 1124.01 695.24 1141.56C698.664 1146.43 707.687 1165.47 711.105 1171.92C719.851 1188.76 723.633 1236.81 722.614 1281.13C721.203 1342.52 716.702 1436.86 716.702 1436.86V1436.86Z" fill="url(#paint18_linear_1340_52)"/>
<path d="M543.125 1301.68L908.732 1214.24C911.356 1213.61 914.078 1213.51 916.742 1213.93C919.406 1214.36 921.961 1215.3 924.26 1216.71C926.559 1218.13 928.557 1219.98 930.14 1222.16C931.724 1224.35 932.862 1226.82 933.489 1229.44L965.026 1361.3C965.654 1363.93 965.759 1366.65 965.335 1369.31C964.91 1371.98 963.966 1374.53 962.554 1376.83C961.143 1379.13 959.293 1381.13 957.109 1382.71C954.925 1384.29 952.451 1385.43 949.827 1386.06L584.217 1473.5C581.594 1474.13 578.872 1474.23 576.208 1473.81C573.544 1473.38 570.99 1472.44 568.691 1471.03C566.392 1469.62 564.394 1467.77 562.81 1465.58C561.226 1463.4 560.088 1460.92 559.461 1458.3L527.926 1326.44C527.298 1323.82 527.193 1321.1 527.617 1318.43C528.041 1315.77 528.986 1313.21 530.397 1310.92C531.808 1308.62 533.659 1306.62 535.843 1305.03C538.027 1303.45 540.501 1302.31 543.125 1301.68V1301.68Z" fill="url(#paint19_linear_1340_52)"/>
<path d="M848.774 1381.32C884.399 1381.32 913.279 1352.44 913.279 1316.82C913.279 1281.19 884.399 1252.31 848.774 1252.31C813.149 1252.31 784.269 1281.19 784.269 1316.82C784.269 1352.44 813.149 1381.32 848.774 1381.32Z" fill="url(#paint20_linear_1340_52)"/>
<path d="M814.583 1306.73C814.786 1307.64 815.168 1308.5 815.708 1309.27C816.248 1310.03 816.935 1310.68 817.728 1311.18C818.522 1311.68 819.406 1312.01 820.33 1312.17C821.254 1312.32 822.199 1312.29 823.111 1312.07C824.022 1311.86 824.881 1311.46 825.639 1310.91C826.397 1310.36 827.037 1309.67 827.524 1308.87C828.011 1308.07 828.333 1307.18 828.473 1306.25C828.613 1305.32 828.568 1304.38 828.34 1303.47C827.888 1301.67 826.744 1300.12 825.156 1299.15C823.569 1298.19 821.665 1297.89 819.857 1298.31C818.049 1298.74 816.482 1299.86 815.495 1301.44C814.508 1303.01 814.18 1304.91 814.583 1306.73ZM860.706 1296.18C861.137 1298 862.274 1299.58 863.868 1300.56C864.658 1301.05 865.535 1301.38 866.451 1301.53C867.367 1301.68 868.304 1301.64 869.207 1301.43C870.11 1301.22 870.962 1300.83 871.715 1300.28C872.468 1299.74 873.106 1299.06 873.594 1298.27C874.082 1297.48 874.409 1296.6 874.558 1295.68C874.707 1294.77 874.673 1293.83 874.46 1292.93C874.03 1291.1 872.892 1289.53 871.298 1288.54C869.704 1287.56 867.783 1287.24 865.959 1287.68C864.135 1288.11 862.557 1289.24 861.572 1290.84C860.587 1292.43 860.275 1294.35 860.706 1296.18V1296.18Z" fill="url(#paint21_linear_1340_52)"/>
<path opacity="0.4" d="M829.989 1329.78C830.326 1331.3 830.359 1332.87 830.086 1334.4C829.814 1335.93 829.241 1337.39 828.4 1338.7C827.559 1340.01 826.468 1341.14 825.189 1342.02C823.91 1342.9 822.469 1343.53 820.948 1343.85C819.427 1344.17 817.858 1344.19 816.329 1343.91C814.801 1343.62 813.344 1343.04 812.044 1342.18C810.743 1341.33 809.624 1340.23 808.751 1338.94C807.878 1337.66 807.268 1336.21 806.957 1334.69C806.336 1331.65 806.942 1328.48 808.643 1325.88C810.344 1323.28 813.003 1321.46 816.04 1320.82C819.077 1320.17 822.247 1320.75 824.86 1322.43C827.472 1324.11 829.316 1326.75 829.989 1329.78V1329.78ZM894.245 1316.09C894.582 1317.61 894.615 1319.18 894.342 1320.71C894.07 1322.24 893.496 1323.7 892.656 1325.01C891.815 1326.31 890.724 1327.44 889.445 1328.33C888.166 1329.21 886.724 1329.83 885.204 1330.16C883.683 1330.48 882.113 1330.5 880.585 1330.21C879.057 1329.93 877.6 1329.34 876.299 1328.49C874.999 1327.64 873.879 1326.54 873.006 1325.25C872.133 1323.97 871.524 1322.52 871.213 1321C870.592 1317.95 871.198 1314.79 872.899 1312.19C874.6 1309.59 877.259 1307.77 880.296 1307.12C883.333 1306.48 886.503 1307.06 889.116 1308.73C891.728 1310.41 893.572 1313.06 894.245 1316.09V1316.09Z" fill="#F4CF67"/>
<path d="M854.975 1346.03C869.889 1343.06 879.603 1328.51 876.633 1313.6C876.53 1313.18 876.271 1312.82 875.909 1312.59C875.546 1312.36 875.109 1312.28 874.687 1312.36C874.266 1312.45 873.893 1312.69 873.646 1313.04C873.4 1313.39 873.298 1313.83 873.363 1314.25C875.975 1327.36 867.433 1340.15 854.323 1342.77C841.21 1345.38 828.421 1336.84 825.809 1323.73C825.717 1323.3 825.461 1322.93 825.095 1322.69C824.73 1322.45 824.285 1322.36 823.856 1322.44C823.428 1322.53 823.05 1322.78 822.804 1323.14C822.558 1323.5 822.464 1323.95 822.542 1324.38C825.515 1339.29 840.062 1349 854.975 1346.03V1346.03Z" fill="url(#paint22_linear_1340_52)"/>
<path d="M581.283 1356.25L749.067 1317.54C752.561 1316.74 754.541 1312.37 753.485 1307.8C752.43 1303.22 748.74 1300.16 745.246 1300.97L577.462 1339.67C573.968 1340.48 571.989 1344.84 573.047 1349.42C574.1 1354 577.79 1357.05 581.283 1356.25ZM752.875 1334.05L585.091 1372.75C581.597 1373.56 579.618 1377.92 580.676 1382.5C581.731 1387.08 585.421 1390.14 588.915 1389.33L756.699 1350.63C760.193 1349.82 762.172 1345.45 761.117 1340.88C760.061 1336.3 756.369 1333.24 752.875 1334.05V1334.05ZM760.506 1367.13L592.722 1405.83C589.226 1406.64 587.249 1411 588.305 1415.58C589.36 1420.16 593.05 1423.22 596.544 1422.41L764.328 1383.71C767.822 1382.9 769.801 1378.53 768.743 1373.96C767.69 1369.38 764 1366.33 760.506 1367.13Z" fill="white"/>
<path d="M864.441 1388.59C864.441 1388.59 881.524 1376.07 879.303 1370.66C876.686 1364.28 867.517 1369.52 853.567 1380.22C851.68 1381.6 845.037 1392.84 814.731 1380.51L726.366 1341.92L678.524 1232.74C651.793 1237.6 645.861 1239.35 620.077 1248.05C633.061 1287.34 665.749 1364.34 683.748 1390.96C683.748 1390.96 822.92 1408.98 825.297 1416.79C825.546 1416.26 825.748 1415.8 825.983 1415.28C837.061 1419.23 848.329 1424.52 859.998 1432.43C865.577 1431.29 873.777 1428.67 875.37 1422.81C877.817 1413.93 904.122 1427.99 904.122 1427.99C904.122 1427.99 905.432 1428.11 907.537 1428.28C908.677 1424.63 908.847 1422.07 908.847 1422.07C892.285 1397.42 864.441 1388.59 864.441 1388.59V1388.59Z" fill="#E9C3B7"/>
<path d="M694.092 1254.94C705.554 1245.6 673.076 1185.66 673.076 1185.66C664.663 1153.19 611.396 1149.63 601.32 1191.19C598.54 1202.66 598.778 1245.03 625.298 1276.25C647.454 1276.73 673.776 1271.49 694.092 1254.94V1254.94Z" fill="url(#paint23_linear_1340_52)"/>
<path d="M938.036 1224.32C938.036 1224.32 916.277 1261.93 929.903 1265.19C943.528 1268.44 964.192 1256.17 964.192 1256.17C964.192 1256.17 964.878 1224.32 938.036 1224.32V1224.32Z" fill="#E9C3B7"/>
<path d="M667.127 1089.47C664.263 1099.35 662.936 1112.19 651.6 1123.07C640.276 1133.93 641.816 1130.32 640.276 1133.93C635.094 1146.06 670.903 1172.51 684.568 1162.62C691.262 1157.78 690.595 1140.09 700.542 1133.68C710.475 1127.3 667.127 1089.47 667.127 1089.47V1089.47Z" fill="#DDAC9E"/>
<path d="M753.751 1094.4C753.816 1094.2 753.863 1094.01 753.916 1093.81C760.229 1073.72 768.575 1058.7 764.093 1043.27C763.69 1041.86 758.519 1037.58 756.374 1035.27C743.079 1003.25 667.127 1010.3 662.754 1032.56C644.086 1127.45 681.48 1140.82 699.084 1145.14C708.003 1147.21 712.723 1148.92 720.461 1145.32C727.373 1142.12 735.632 1134.33 742.133 1121.54C748.079 1121.24 754.485 1121.98 755.582 1118.62C755.856 1118.17 756.044 1117.66 756.047 1117.01C753.821 1110.43 754.555 1099.02 753.751 1094.4V1094.4Z" fill="#E9C3B7"/>
<path d="M772.951 1035.92C763.681 1040.95 749.63 1009.69 722.555 998.338C714.011 994.757 705.626 991.566 698.345 991.949C679.949 989.432 673.171 998.618 665.57 1005.57C663.546 1007.5 629.335 1014.91 636.525 1060.82C638.501 1073.38 641.455 1079.2 642.163 1086.9C644.072 1107.61 639.319 1110.28 639.319 1110.28C639.319 1110.28 655.752 1117.88 660.425 1111.11C679.551 1083.23 699.526 1080.03 699.526 1080.03C699.526 1080.03 700.251 1077.93 701.413 1074.98C707.889 1073.93 712.639 1076.23 712.639 1076.23C712.639 1076.23 718.793 1064.29 727.497 1057.01C737.74 1048.4 738.961 1048.84 745.028 1048.76C751.064 1048.68 764.91 1058.09 764.91 1058.09C764.91 1058.09 788.2 1027.62 772.951 1035.92V1035.92Z" fill="#292929"/>
<path d="M707.236 1073.84C706.701 1061.58 697.622 1060.86 692.485 1065.56C687.494 1070.36 688.91 1088.96 692.536 1091.34C702.611 1097.97 707.236 1073.84 707.236 1073.84V1073.84Z" fill="#DDAC9E"/>
<path d="M1729.8 870.287L1731.24 867.888L1738.48 872.238L1737.04 874.637C1734.62 878.652 1733.27 880.783 1733.27 880.783L1731.76 883.143L1724.63 878.588L1726.15 876.222C1726.24 876.09 1727.55 874.035 1729.8 870.287V870.287ZM1750.54 833.176C1752.73 828.984 1754.9 824.775 1757.03 820.55L1758.29 818.05L1765.83 821.846L1764.57 824.346C1762.42 828.613 1760.24 832.863 1758.02 837.095L1756.72 839.576L1749.24 835.651L1750.54 833.176ZM1736.94 858.084C1739.02 854.439 1741.34 850.292 1743.85 845.687L1745.2 843.226L1752.6 847.28L1751.26 849.732C1748.97 853.93 1746.65 858.106 1744.28 862.26L1742.89 864.691L1735.56 860.514L1736.94 858.084V858.084ZM1763.31 807.82C1765.37 803.558 1767.4 799.28 1769.39 794.987L1770.57 792.45L1778.23 796.003L1777.05 798.545C1775.04 802.878 1772.99 807.195 1770.92 811.496L1769.7 814.016L1762.1 810.345L1763.31 807.82ZM1786.34 755.941C1788.11 751.559 1789.84 747.162 1791.54 742.75L1792.54 740.135L1800.42 743.164L1799.42 745.776C1797.71 750.236 1795.96 754.681 1794.16 759.11L1793.11 761.708L1785.29 758.534L1786.34 755.941V755.941ZM1648.48 288.992C1652.86 290.647 1657.37 292.48 1661.88 294.448L1664.44 295.568L1661.06 303.306L1658.5 302.189C1654.21 300.317 1649.87 298.552 1645.5 296.895L1642.88 295.904L1645.86 288.004L1648.48 288.992V288.992ZM1700.33 314.185C1704.46 316.612 1708.56 319.103 1712.62 321.657L1714.98 323.15L1710.49 330.297L1708.12 328.805C1704.13 326.297 1700.11 323.851 1696.06 321.467L1693.64 320.048L1697.92 312.769L1700.33 314.185V314.185ZM1796.5 729.457C1798.1 725.059 1799.67 720.599 1801.22 716.086L1802.12 713.441L1810.11 716.165L1809.21 718.813C1807.66 723.338 1806.08 727.848 1804.44 732.341L1803.49 734.97L1795.55 732.089L1796.5 729.457V729.457ZM1674.98 300.515C1679.21 302.59 1683.52 304.81 1687.79 307.114L1690.26 308.446L1686.24 315.874L1683.78 314.547C1679.65 312.316 1675.47 310.167 1671.26 308.099L1668.75 306.867L1672.46 299.286L1674.98 300.515V300.515ZM1724.67 329.479C1727.39 331.299 1730.15 333.181 1732.92 335.109C1734.13 335.946 1735.33 336.795 1736.52 337.651L1738.79 339.289L1733.85 346.14L1731.58 344.505C1730.43 343.676 1729.27 342.859 1728.1 342.052C1725.41 340.178 1722.7 338.328 1719.97 336.504L1717.65 334.95L1722.34 327.931L1724.67 329.479V329.479ZM1769.59 365.714C1773 369.141 1776.3 372.668 1779.49 376.291L1781.34 378.391L1775.01 383.976L1773.16 381.873C1770.07 378.375 1766.88 374.969 1763.6 371.661L1761.62 369.673L1767.62 363.727L1769.59 365.714ZM1748.04 346.389C1751.81 349.406 1755.49 352.527 1759.08 355.748L1761.17 357.618L1755.53 363.9L1753.45 362.033C1749.97 358.917 1746.4 355.898 1742.76 352.979L1740.57 351.229L1745.85 344.639L1748.04 346.389V346.389ZM1775.25 782.067C1777.17 777.745 1779.05 773.406 1780.9 769.052L1781.99 766.473L1789.77 769.774L1788.67 772.349C1786.81 776.748 1784.91 781.13 1782.97 785.496L1781.83 788.055L1774.11 784.626L1775.25 782.067V782.067ZM1815.73 453.601C1814.13 449.223 1812.39 444.894 1810.54 440.617L1809.42 438.052L1817.16 434.682L1818.28 437.249C1820.2 441.678 1822 446.163 1823.66 450.698L1824.63 453.327L1816.7 456.233L1815.73 453.601ZM1823.84 480.402C1822.74 475.862 1821.51 471.354 1820.16 466.882L1819.35 464.203L1827.43 461.756L1828.24 464.436C1829.63 468.999 1830.9 473.699 1832.04 478.408L1832.7 481.127L1824.5 483.12L1823.84 480.402V480.402ZM1829.03 507.972C1828.38 503.255 1827.63 498.59 1826.79 494.117L1826.26 491.362L1834.57 489.803L1835.08 492.552C1835.95 497.163 1836.73 501.967 1837.39 506.827L1837.77 509.604L1829.41 510.743L1829.03 507.972V507.972ZM1805.67 702.632C1807.09 698.161 1808.49 693.642 1809.84 689.09L1810.63 686.408L1818.73 688.805L1817.93 691.489C1816.57 696.075 1815.17 700.646 1813.71 705.202L1812.86 707.87L1804.81 705.294L1805.67 702.632V702.632ZM1790.3 403.945C1787.68 400.094 1784.94 396.327 1782.08 392.649L1780.36 390.44L1787.02 385.255L1788.74 387.467C1791.71 391.284 1794.56 395.194 1797.28 399.189L1798.86 401.501L1791.88 406.263L1790.3 403.945ZM1804.55 427.977C1802.44 423.828 1800.19 419.748 1797.81 415.743L1796.38 413.335L1803.64 409.021L1805.07 411.429C1807.53 415.589 1809.87 419.825 1812.08 424.13L1813.35 426.625L1805.83 430.471L1804.55 427.977V427.977ZM1831.55 535.976C1831.33 531.239 1831.01 526.513 1830.6 521.939L1830.35 519.153L1838.76 518.395L1839.01 521.186C1839.44 525.917 1839.76 530.763 1839.98 535.592L1840.11 538.386L1831.68 538.776L1831.55 535.976V535.976ZM1813.72 675.465C1814.95 670.932 1816.14 666.363 1817.28 661.766L1817.96 659.051L1826.16 661.078L1825.48 663.796C1824.33 668.439 1823.12 673.069 1821.87 677.685L1821.13 680.386L1812.98 678.169L1813.72 675.465ZM1831.68 564.14C1831.84 559.487 1831.91 554.747 1831.89 550.052L1831.88 547.255L1840.33 547.213L1840.34 550.016C1840.36 554.822 1840.28 559.628 1840.12 564.431L1840.03 567.23L1831.58 566.939L1831.68 564.14V564.14ZM1820.52 648.009C1821.54 643.421 1822.5 638.81 1823.4 634.177L1823.94 631.427L1832.22 633.045L1831.69 635.789C1830.78 640.483 1829.8 645.165 1828.76 649.835L1828.16 652.57L1819.91 650.744L1820.52 648.009V648.009ZM1829.71 592.281C1830.14 588.118 1830.53 583.837 1830.84 579.568L1831.14 575.444L1839.56 576.015L1839.27 580.184C1838.95 584.515 1838.56 588.841 1838.11 593.16L1837.82 595.946L1829.42 595.064L1829.71 592.281V592.281ZM1825.91 620.271C1826.7 615.573 1827.41 610.876 1828.03 606.31L1828.4 603.538L1836.77 604.666L1836.39 607.443C1835.77 612.015 1835.05 616.797 1834.25 621.66L1833.79 624.423L1825.45 623.034L1825.91 620.271ZM1492.17 285.005L1494.88 284.306L1497 292.483L1494.28 293.18C1489.74 294.353 1485.18 295.582 1480.59 296.845L1477.89 297.59L1475.65 289.448L1478.34 288.707C1482.98 287.43 1487.59 286.19 1492.17 285.005V285.005ZM1255.4 314.815C1259.96 315.238 1264.66 315.644 1269.52 316.022L1272.31 316.24L1271.66 324.661L1268.87 324.443C1264.12 324.072 1259.36 323.666 1254.62 323.225L1251.83 322.965L1252.62 314.558L1255.4 314.815V314.815ZM1144.01 295.434C1148.46 296.579 1153.02 297.727 1157.76 298.877L1160.48 299.538L1158.49 307.744L1155.77 307.086C1151.14 305.959 1146.52 304.803 1141.91 303.617L1139.19 302.92L1141.3 294.737L1144.01 295.434V295.434ZM1227.25 311.708C1231.77 312.293 1236.45 312.85 1241.31 313.385L1244.1 313.693L1243.17 322.086L1240.39 321.781C1235.64 321.26 1230.91 320.693 1226.17 320.081L1223.4 319.723L1224.48 311.347L1227.25 311.708V311.708ZM1199.28 307.511C1203.75 308.281 1208.39 309.034 1213.23 309.756L1216 310.168L1214.76 318.528L1211.99 318.11C1207.26 317.402 1202.55 316.643 1197.84 315.834L1195.08 315.358L1196.52 307.035L1199.28 307.511V307.511ZM1116.44 288.289C1121.02 289.443 1125.6 290.633 1130.26 291.85L1132.96 292.559L1130.83 300.725L1128.12 300.017C1123.49 298.81 1118.94 297.623 1114.38 296.475L1111.66 295.792L1113.72 287.606L1116.44 288.289V288.289ZM1171.54 302.063C1175.97 303.043 1180.57 304.003 1185.38 304.95L1188.13 305.493L1186.49 313.774L1183.75 313.234C1178.88 312.276 1174.21 311.299 1169.72 310.311L1166.99 309.709L1168.8 301.456L1171.54 302.063V302.063ZM988.252 275.361L991.051 275.283L991.289 283.718L988.492 283.799C983.932 283.93 979.212 284.107 974.324 284.328L971.53 284.454L971.141 276.022L973.937 275.893C978.876 275.666 983.641 275.49 988.252 275.361ZM1620.86 280.283C1625.44 281.43 1630.13 282.763 1634.81 284.244L1637.48 285.089L1634.93 293.141L1632.26 292.296C1627.82 290.885 1623.33 289.611 1618.8 288.474L1616.09 287.791L1618.14 279.605L1620.86 280.283V280.283ZM1045.13 276.335L1048.44 276.579L1047.82 285L1044.51 284.756C1039.99 284.425 1035.47 284.165 1030.94 283.975L1028.14 283.858L1028.5 275.42L1031.3 275.537C1035.96 275.736 1040.62 276.005 1045.13 276.335ZM1059.98 277.701C1064.79 278.236 1069.59 278.866 1074.25 279.574L1077.02 279.994L1075.76 288.337L1072.99 287.92C1068.35 287.222 1063.7 286.614 1059.04 286.097L1056.26 285.789L1057.19 277.393L1059.98 277.701ZM1088.43 282.002C1093.14 282.902 1097.83 283.885 1102.5 284.949L1105.23 285.568L1103.37 293.805L1100.64 293.186C1096.06 292.143 1091.46 291.181 1086.85 290.302L1084.1 289.779L1085.68 281.481L1088.43 282.002V282.002ZM1016.93 275.129L1019.73 275.171L1019.61 283.614L1016.81 283.572C1012.27 283.505 1007.56 283.494 1002.66 283.533L999.864 283.555L999.789 275.112L1002.59 275.087C1007.56 275.045 1012.33 275.059 1016.93 275.129V275.129ZM1548.82 274.574L1551.62 274.333L1552.34 282.749L1549.55 282.99C1545.02 283.382 1540.34 283.919 1535.64 284.591L1532.86 284.989L1531.67 276.629L1534.44 276.232C1539.22 275.546 1544.02 274.993 1548.82 274.574V274.574Z" fill="url(#paint24_linear_1340_52)"/>
<path d="M1448.19 297.245L1467.29 291.842L1469.59 299.966L1450.49 305.37L1448.19 297.245Z" fill="url(#paint25_linear_1340_52)"/>
<path d="M1520.2 278.615L1522.95 278.089L1524.53 286.387L1521.78 286.91C1517.44 287.739 1512.93 288.691 1508.01 289.819L1505.29 290.446L1503.39 282.221L1506.12 281.591C1511.05 280.457 1515.65 279.486 1520.2 278.615V278.615ZM1577.81 273.926L1580.61 274.049L1580.24 282.487L1577.44 282.364C1572.79 282.161 1568.14 282.115 1563.49 282.224L1560.69 282.291L1560.5 273.845L1563.3 273.78C1568.14 273.667 1572.98 273.716 1577.81 273.926V273.926ZM1592.3 275.068C1597.12 275.617 1601.95 276.336 1606.67 277.204L1609.42 277.708L1607.91 286.015L1605.15 285.508C1600.57 284.67 1595.97 283.986 1591.34 283.459L1588.56 283.142L1589.51 274.746L1592.3 275.068V275.068ZM1437.21 300.222L1439.9 299.492L1442.12 307.641L1439.41 308.372C1434.85 309.604 1430.24 310.819 1425.56 312.003L1422.85 312.692L1420.78 304.503L1423.49 303.817C1428.13 302.644 1432.69 301.44 1437.21 300.222V300.222ZM1294.96 317.7L1300.64 317.991L1300.23 326.429L1294.51 326.135C1290.63 325.922 1286.83 325.696 1283.13 325.455L1280.34 325.273L1280.89 316.846L1283.68 317.028C1287.36 317.266 1291.11 317.49 1294.96 317.7V317.7ZM1354.12 316.438L1356.9 316.163L1357.73 324.562L1354.94 324.836C1350.14 325.312 1345.31 325.699 1340.6 325.987L1337.81 326.158L1337.28 317.734L1340.08 317.56C1344.72 317.277 1349.44 316.897 1354.12 316.438ZM1326.01 318.17L1328.81 318.098L1329.01 326.547L1326.21 326.617C1321.45 326.734 1316.61 326.765 1311.83 326.709L1309.03 326.678L1309.12 318.232L1311.92 318.266C1316.64 318.319 1321.37 318.288 1326.01 318.17V318.17ZM1409.74 307.143L1412.47 306.516L1414.36 314.744L1411.63 315.371C1406.9 316.457 1402.18 317.476 1397.59 318.397L1394.84 318.949L1393.19 310.67L1395.93 310.119C1400.43 309.215 1405.08 308.215 1409.74 307.143V307.143ZM1382.05 312.689L1384.82 312.221L1386.22 320.547L1383.46 321.015C1378.73 321.816 1373.99 322.537 1369.24 323.176L1366.46 323.546L1365.34 315.178L1368.11 314.805C1372.72 314.187 1377.41 313.476 1382.05 312.689V312.689ZM951.86 277.151C954.27 276.989 956.647 276.838 958.988 276.692L961.782 276.518L962.302 284.945L959.508 285.119C957.15 285.266 954.792 285.419 952.434 285.578L949.64 285.768L949.066 277.341L951.86 277.151Z" fill="url(#paint26_linear_1340_52)"/>
<path d="M935.298 306.206L919.318 322.421C919.318 322.421 819.264 305.839 826.638 306.425C834.012 307.007 929.211 272.838 929.211 272.838L935.298 306.206V306.206Z" fill="url(#paint27_linear_1340_52)"/>
<path d="M946.292 315.902L940.34 288.348L843.866 304.001L932.232 280.358L924.62 261.441L826.635 306.425L946.292 315.902Z" fill="url(#paint28_linear_1340_52)"/>
<defs>
<linearGradient id="paint0_linear_1340_52" x1="1259.36" y1="1933.51" x2="1258.93" y2="1933.26" gradientUnits="userSpaceOnUse">
<stop offset="0.268" stop-color="#8DC63F"/>
<stop offset="1" stop-color="#009444"/>
</linearGradient>
<linearGradient id="paint1_linear_1340_52" x1="1405.6" y1="1589.24" x2="1405.6" y2="1951.58" gradientUnits="userSpaceOnUse">
<stop stop-color="#01AA45"/>
<stop offset="1" stop-color="#00702D"/>
</linearGradient>
<linearGradient id="paint2_linear_1340_52" x1="1273.63" y1="1967.51" x2="1273.12" y2="1967.95" gradientUnits="userSpaceOnUse">
<stop offset="0.268" stop-color="#8DC63F"/>
<stop offset="1" stop-color="#009444"/>
</linearGradient>
<linearGradient id="paint3_linear_1340_52" x1="1120.34" y1="1475.52" x2="1120.34" y2="1964.07" gradientUnits="userSpaceOnUse">
<stop stop-color="#01AA45"/>
<stop offset="1" stop-color="#00702D"/>
</linearGradient>
<linearGradient id="paint4_linear_1340_52" x1="1735.83" y1="1662.25" x2="1735.83" y2="1710.52" gradientUnits="userSpaceOnUse">
<stop stop-color="#01AA45"/>
<stop offset="1" stop-color="#00702D"/>
</linearGradient>
<linearGradient id="paint5_linear_1340_52" x1="1517.99" y1="1328.85" x2="1517.99" y2="1977.15" gradientUnits="userSpaceOnUse">
<stop stop-color="#01AA45"/>
<stop offset="1" stop-color="#00702D"/>
</linearGradient>
<linearGradient id="paint6_linear_1340_52" x1="792.675" y1="1545.62" x2="792.675" y2="1585.83" gradientUnits="userSpaceOnUse">
<stop stop-color="#01AA45"/>
<stop offset="1" stop-color="#00702D"/>
</linearGradient>
<linearGradient id="paint7_linear_1340_52" x1="938.638" y1="1333.17" x2="938.638" y2="1905.37" gradientUnits="userSpaceOnUse">
<stop stop-color="#01AA45"/>
<stop offset="1" stop-color="#00702D"/>
</linearGradient>
<linearGradient id="paint8_linear_1340_52" x1="1157.72" y1="453.654" x2="1091.64" y2="2007.68" gradientUnits="userSpaceOnUse">
<stop stop-color="#ED3237"/>
<stop offset="1" stop-color="#A01D20"/>
</linearGradient>
<linearGradient id="paint9_linear_1340_52" x1="1336.44" y1="1178.88" x2="1336.44" y2="1319.57" gradientUnits="userSpaceOnUse">
<stop stop-color="#01AA45"/>
<stop offset="1" stop-color="#00702D"/>
</linearGradient>
<linearGradient id="paint10_linear_1340_52" x1="1532.4" y1="1177.89" x2="1532.4" y2="1330.24" gradientUnits="userSpaceOnUse">
<stop stop-color="#01AA45"/>
<stop offset="1" stop-color="#00702D"/>
</linearGradient>
<linearGradient id="paint11_linear_1340_52" x1="1433.56" y1="1458.76" x2="1433.56" y2="1515.55" gradientUnits="userSpaceOnUse">
<stop stop-color="#01AA45"/>
<stop offset="1" stop-color="#00702D"/>
</linearGradient>
<linearGradient id="paint12_linear_1340_52" x1="1433.66" y1="1171.97" x2="1433.66" y2="1498.28" gradientUnits="userSpaceOnUse">
<stop stop-color="#01AA45"/>
<stop offset="1" stop-color="#00702D"/>
</linearGradient>
<linearGradient id="paint13_linear_1340_52" x1="1476.13" y1="1221.03" x2="1471.94" y2="1315.28" gradientUnits="userSpaceOnUse">
<stop stop-color="#ED3237"/>
<stop offset="1" stop-color="#A01D20"/>
</linearGradient>
<linearGradient id="paint14_linear_1340_52" x1="1682.8" y1="1063.15" x2="1682.8" y2="1226.83" gradientUnits="userSpaceOnUse">
<stop stop-color="#01AA45"/>
<stop offset="1" stop-color="#00702D"/>
</linearGradient>
<linearGradient id="paint15_linear_1340_52" x1="748.788" y1="1966.66" x2="748.49" y2="2001.52" gradientUnits="userSpaceOnUse">
<stop stop-color="#ED3237"/>
<stop offset="1" stop-color="#A01D20"/>
</linearGradient>
<linearGradient id="paint16_linear_1340_52" x1="503.986" y1="1944.54" x2="503.029" y2="2005.03" gradientUnits="userSpaceOnUse">
<stop stop-color="#ED3237"/>
<stop offset="1" stop-color="#A01D20"/>
</linearGradient>
<linearGradient id="paint17_linear_1340_52" x1="692.974" y1="1136.67" x2="692.974" y2="1254.94" gradientUnits="userSpaceOnUse">
<stop stop-color="#01AA45"/>
<stop offset="1" stop-color="#00702D"/>
</linearGradient>
<linearGradient id="paint18_linear_1340_52" x1="625.3" y1="1116.59" x2="625.3" y2="1449.33" gradientUnits="userSpaceOnUse">
<stop stop-color="#01AA45"/>
<stop offset="1" stop-color="#00702D"/>
</linearGradient>
<linearGradient id="paint19_linear_1340_52" x1="758.683" y1="1213.68" x2="755.141" y2="1474.06" gradientUnits="userSpaceOnUse">
<stop stop-color="#ED3237"/>
<stop offset="1" stop-color="#A01D20"/>
</linearGradient>
<linearGradient id="paint20_linear_1340_52" x1="848.774" y1="1252.31" x2="848.774" y2="1381.32" gradientUnits="userSpaceOnUse">
<stop stop-color="#01AA45"/>
<stop offset="1" stop-color="#00702D"/>
</linearGradient>
<linearGradient id="paint21_linear_1340_52" x1="846.21" y1="1287.49" x2="845.977" y2="1312.26" gradientUnits="userSpaceOnUse">
<stop stop-color="#ED3237"/>
<stop offset="1" stop-color="#A01D20"/>
</linearGradient>
<linearGradient id="paint22_linear_1340_52" x1="851.364" y1="1312.33" x2="850.873" y2="1346.57" gradientUnits="userSpaceOnUse">
<stop stop-color="#ED3237"/>
<stop offset="1" stop-color="#A01D20"/>
</linearGradient>
<linearGradient id="paint23_linear_1340_52" x1="648.352" y1="1160.66" x2="648.352" y2="1276.28" gradientUnits="userSpaceOnUse">
<stop stop-color="#01AA45"/>
<stop offset="1" stop-color="#00702D"/>
</linearGradient>
<linearGradient id="paint24_linear_1340_52" x1="1405.74" y1="274.333" x2="1405.74" y2="883.143" gradientUnits="userSpaceOnUse">
<stop stop-color="#01AA45"/>
<stop offset="1" stop-color="#00702D"/>
</linearGradient>
<linearGradient id="paint25_linear_1340_52" x1="1457.74" y1="294.543" x2="1460.04" y2="302.668" gradientUnits="userSpaceOnUse">
<stop stop-color="#01AA45"/>
<stop offset="1" stop-color="#00702D"/>
</linearGradient>
<linearGradient id="paint26_linear_1340_52" x1="1279.24" y1="273.721" x2="1279.24" y2="326.736" gradientUnits="userSpaceOnUse">
<stop stop-color="#01AA45"/>
<stop offset="1" stop-color="#00702D"/>
</linearGradient>
<linearGradient id="paint27_linear_1340_52" x1="880.774" y1="272.838" x2="880.774" y2="322.421" gradientUnits="userSpaceOnUse">
<stop stop-color="#01AA45"/>
<stop offset="1" stop-color="#00702D"/>
</linearGradient>
<linearGradient id="paint28_linear_1340_52" x1="886.463" y1="261.441" x2="886.463" y2="315.902" gradientUnits="userSpaceOnUse">
<stop stop-color="#01AA45"/>
<stop offset="1" stop-color="#00702D"/>
</linearGradient>
</defs>
</svg>
